<svg xmlns="http://www.w3.org/2000/svg" version="1.1" xmlns:xlink="http://www.w3.org/1999/xlink" xmlns:svgjs="http://svgjs.dev/svgjs" width="1440" height="560" preserveAspectRatio="none" viewBox="0 0 1440 560"><g mask="url(&quot;#SvgjsMask1058&quot;)" fill="none"><path d="M65.5 -37.15L130.45 0.35L130.45 75.35L65.5 112.85L0.55 75.35L0.55 0.35zM130.45 75.35L195.41 112.85L195.41 187.85L130.45 225.35L65.5 187.85L65.5 112.85zM65.5 187.85L130.45 225.35L130.45 300.35L65.5 337.85L0.55 300.35L0.55 225.35zM65.5 412.85L130.45 450.35L130.45 525.35L65.5 562.85L0.55 525.35L0.55 450.35zM130.45 525.35L195.41 562.85L195.41 637.85L130.45 675.35L65.5 637.85L65.5 562.85zM195.41 -37.15L260.36 0.35L260.36 75.35L195.41 112.85L130.45 75.35L130.45 0.35zM455.22 -37.15L520.18 0.35L520.18 75.35L455.22 112.85L390.27 75.35L390.27 0.35zM585.13 412.85L650.08 450.35L650.08 525.35L585.13 562.85L520.18 525.35L520.18 450.35zM779.99 525.35L844.95 562.85L844.95 637.85L779.99 675.35L715.04 637.85L715.04 562.85zM844.94 187.85L909.9 225.35L909.9 300.35L844.94 337.85L779.99 300.35L779.99 225.35zM844.94 412.85L909.9 450.35L909.9 525.35L844.94 562.85L779.99 525.35L779.99 450.35zM1039.81 75.35L1104.76 112.85L1104.76 187.85L1039.81 225.35L974.85 187.85L974.85 112.85zM974.85 187.85L1039.81 225.35L1039.81 300.35L974.85 337.85L909.9 300.35L909.9 225.35zM1104.76 412.85L1169.71 450.35L1169.71 525.35L1104.76 562.85L1039.81 525.35L1039.81 450.35zM1169.71 525.35L1234.67 562.85L1234.67 637.85L1169.71 675.35L1104.76 637.85L1104.76 562.85zM1234.67 187.85L1299.62 225.35L1299.62 300.35L1234.67 337.85L1169.71 300.35L1169.71 225.35zM1299.62 525.35L1364.57 562.85L1364.57 637.85L1299.62 675.35L1234.67 637.85L1234.67 562.85zM1364.58 -37.15L1429.53 0.35L1429.53 75.35L1364.58 112.85L1299.62 75.35L1299.62 0.35zM1429.53 300.35L1494.48 337.85L1494.48 412.85L1429.53 450.35L1364.58 412.85L1364.58 337.85z" stroke="rgba(196, 242, 168, 1)" stroke-width="2"></path><path d="M58 -37.15 a7.5 7.5 0 1 0 15 0 a7.5 7.5 0 1 0 -15 0zM122.95 0.35 a7.5 7.5 0 1 0 15 0 a7.5 7.5 0 1 0 -15 0zM122.95 75.35 a7.5 7.5 0 1 0 15 0 a7.5 7.5 0 1 0 -15 0zM58 112.85 a7.5 7.5 0 1 0 15 0 a7.5 7.5 0 1 0 -15 0zM-6.95 75.35 a7.5 7.5 0 1 0 15 0 a7.5 7.5 0 1 0 -15 0zM-6.95 0.35 a7.5 7.5 0 1 0 15 0 a7.5 7.5 0 1 0 -15 0zM187.91 112.85 a7.5 7.5 0 1 0 15 0 a7.5 7.5 0 1 0 -15 0zM187.91 187.85 a7.5 7.5 0 1 0 15 0 a7.5 7.5 0 1 0 -15 0zM122.95 225.35 a7.5 7.5 0 1 0 15 0 a7.5 7.5 0 1 0 -15 0zM58 187.85 a7.5 7.5 0 1 0 15 0 a7.5 7.5 0 1 0 -15 0zM122.95 300.35 a7.5 7.5 0 1 0 15 0 a7.5 7.5 0 1 0 -15 0zM58 337.85 a7.5 7.5 0 1 0 15 0 a7.5 7.5 0 1 0 -15 0zM-6.95 300.35 a7.5 7.5 0 1 0 15 0 a7.5 7.5 0 1 0 -15 0zM-6.95 225.35 a7.5 7.5 0 1 0 15 0 a7.5 7.5 0 1 0 -15 0zM58 412.85 a7.5 7.5 0 1 0 15 0 a7.5 7.5 0 1 0 -15 0zM122.95 450.35 a7.5 7.5 0 1 0 15 0 a7.5 7.5 0 1 0 -15 0zM122.95 525.35 a7.5 7.5 0 1 0 15 0 a7.5 7.5 0 1 0 -15 0zM58 562.85 a7.5 7.5 0 1 0 15 0 a7.5 7.5 0 1 0 -15 0zM-6.95 525.35 a7.5 7.5 0 1 0 15 0 a7.5 7.5 0 1 0 -15 0zM-6.95 450.35 a7.5 7.5 0 1 0 15 0 a7.5 7.5 0 1 0 -15 0zM187.91 562.85 a7.5 7.5 0 1 0 15 0 a7.5 7.5 0 1 0 -15 0zM187.91 637.85 a7.5 7.5 0 1 0 15 0 a7.5 7.5 0 1 0 -15 0zM122.95 675.35 a7.5 7.5 0 1 0 15 0 a7.5 7.5 0 1 0 -15 0zM58 637.85 a7.5 7.5 0 1 0 15 0 a7.5 7.5 0 1 0 -15 0zM187.91 -37.15 a7.5 7.5 0 1 0 15 0 a7.5 7.5 0 1 0 -15 0zM252.86 0.35 a7.5 7.5 0 1 0 15 0 a7.5 7.5 0 1 0 -15 0zM252.86 75.35 a7.5 7.5 0 1 0 15 0 a7.5 7.5 0 1 0 -15 0zM447.72 -37.15 a7.5 7.5 0 1 0 15 0 a7.5 7.5 0 1 0 -15 0zM512.68 0.35 a7.5 7.5 0 1 0 15 0 a7.5 7.5 0 1 0 -15 0zM512.68 75.35 a7.5 7.5 0 1 0 15 0 a7.5 7.5 0 1 0 -15 0zM447.72 112.85 a7.5 7.5 0 1 0 15 0 a7.5 7.5 0 1 0 -15 0zM382.77 75.35 a7.5 7.5 0 1 0 15 0 a7.5 7.5 0 1 0 -15 0zM382.77 0.35 a7.5 7.5 0 1 0 15 0 a7.5 7.5 0 1 0 -15 0zM577.63 412.85 a7.5 7.5 0 1 0 15 0 a7.5 7.5 0 1 0 -15 0zM642.58 450.35 a7.5 7.5 0 1 0 15 0 a7.5 7.5 0 1 0 -15 0zM642.58 525.35 a7.5 7.5 0 1 0 15 0 a7.5 7.5 0 1 0 -15 0zM577.63 562.85 a7.5 7.5 0 1 0 15 0 a7.5 7.5 0 1 0 -15 0zM512.68 525.35 a7.5 7.5 0 1 0 15 0 a7.5 7.5 0 1 0 -15 0zM512.68 450.35 a7.5 7.5 0 1 0 15 0 a7.5 7.5 0 1 0 -15 0zM772.49 525.35 a7.5 7.5 0 1 0 15 0 a7.5 7.5 0 1 0 -15 0zM837.45 562.85 a7.5 7.5 0 1 0 15 0 a7.5 7.5 0 1 0 -15 0zM837.45 637.85 a7.5 7.5 0 1 0 15 0 a7.5 7.5 0 1 0 -15 0zM772.49 675.35 a7.5 7.5 0 1 0 15 0 a7.5 7.5 0 1 0 -15 0zM707.54 637.85 a7.5 7.5 0 1 0 15 0 a7.5 7.5 0 1 0 -15 0zM707.54 562.85 a7.5 7.5 0 1 0 15 0 a7.5 7.5 0 1 0 -15 0zM837.44 187.85 a7.5 7.5 0 1 0 15 0 a7.5 7.5 0 1 0 -15 0zM902.4 225.35 a7.5 7.5 0 1 0 15 0 a7.5 7.5 0 1 0 -15 0zM902.4 300.35 a7.5 7.5 0 1 0 15 0 a7.5 7.5 0 1 0 -15 0zM837.44 337.85 a7.5 7.5 0 1 0 15 0 a7.5 7.5 0 1 0 -15 0zM772.49 300.35 a7.5 7.5 0 1 0 15 0 a7.5 7.5 0 1 0 -15 0zM772.49 225.35 a7.5 7.5 0 1 0 15 0 a7.5 7.5 0 1 0 -15 0zM837.44 412.85 a7.5 7.5 0 1 0 15 0 a7.5 7.5 0 1 0 -15 0zM902.4 450.35 a7.5 7.5 0 1 0 15 0 a7.5 7.5 0 1 0 -15 0zM902.4 525.35 a7.5 7.5 0 1 0 15 0 a7.5 7.5 0 1 0 -15 0zM837.44 562.85 a7.5 7.5 0 1 0 15 0 a7.5 7.5 0 1 0 -15 0zM772.49 450.35 a7.5 7.5 0 1 0 15 0 a7.5 7.5 0 1 0 -15 0zM1032.31 75.35 a7.5 7.5 0 1 0 15 0 a7.5 7.5 0 1 0 -15 0zM1097.26 112.85 a7.5 7.5 0 1 0 15 0 a7.5 7.5 0 1 0 -15 0zM1097.26 187.85 a7.5 7.5 0 1 0 15 0 a7.5 7.5 0 1 0 -15 0zM1032.31 225.35 a7.5 7.5 0 1 0 15 0 a7.5 7.5 0 1 0 -15 0zM967.35 187.85 a7.5 7.5 0 1 0 15 0 a7.5 7.5 0 1 0 -15 0zM967.35 112.85 a7.5 7.5 0 1 0 15 0 a7.5 7.5 0 1 0 -15 0zM1032.31 300.35 a7.5 7.5 0 1 0 15 0 a7.5 7.5 0 1 0 -15 0zM967.35 337.85 a7.5 7.5 0 1 0 15 0 a7.5 7.5 0 1 0 -15 0zM1097.26 412.85 a7.5 7.5 0 1 0 15 0 a7.5 7.5 0 1 0 -15 0zM1162.21 450.35 a7.5 7.5 0 1 0 15 0 a7.5 7.5 0 1 0 -15 0zM1162.21 525.35 a7.5 7.5 0 1 0 15 0 a7.5 7.5 0 1 0 -15 0zM1097.26 562.85 a7.5 7.5 0 1 0 15 0 a7.5 7.5 0 1 0 -15 0zM1032.31 525.35 a7.5 7.5 0 1 0 15 0 a7.5 7.5 0 1 0 -15 0zM1032.31 450.35 a7.5 7.5 0 1 0 15 0 a7.5 7.5 0 1 0 -15 0zM1227.17 562.85 a7.5 7.5 0 1 0 15 0 a7.5 7.5 0 1 0 -15 0zM1227.17 637.85 a7.5 7.5 0 1 0 15 0 a7.5 7.5 0 1 0 -15 0zM1162.21 675.35 a7.5 7.5 0 1 0 15 0 a7.5 7.5 0 1 0 -15 0zM1097.26 637.85 a7.5 7.5 0 1 0 15 0 a7.5 7.5 0 1 0 -15 0zM1227.17 187.85 a7.5 7.5 0 1 0 15 0 a7.5 7.5 0 1 0 -15 0zM1292.12 225.35 a7.5 7.5 0 1 0 15 0 a7.5 7.5 0 1 0 -15 0zM1292.12 300.35 a7.5 7.5 0 1 0 15 0 a7.5 7.5 0 1 0 -15 0zM1227.17 337.85 a7.5 7.5 0 1 0 15 0 a7.5 7.5 0 1 0 -15 0zM1162.21 300.35 a7.5 7.5 0 1 0 15 0 a7.5 7.5 0 1 0 -15 0zM1162.21 225.35 a7.5 7.5 0 1 0 15 0 a7.5 7.5 0 1 0 -15 0zM1292.12 525.35 a7.5 7.5 0 1 0 15 0 a7.5 7.5 0 1 0 -15 0zM1357.07 562.85 a7.5 7.5 0 1 0 15 0 a7.5 7.5 0 1 0 -15 0zM1357.07 637.85 a7.5 7.5 0 1 0 15 0 a7.5 7.5 0 1 0 -15 0zM1292.12 675.35 a7.5 7.5 0 1 0 15 0 a7.5 7.5 0 1 0 -15 0zM1357.08 -37.15 a7.5 7.5 0 1 0 15 0 a7.5 7.5 0 1 0 -15 0zM1422.03 0.35 a7.5 7.5 0 1 0 15 0 a7.5 7.5 0 1 0 -15 0zM1422.03 75.35 a7.5 7.5 0 1 0 15 0 a7.5 7.5 0 1 0 -15 0zM1357.08 112.85 a7.5 7.5 0 1 0 15 0 a7.5 7.5 0 1 0 -15 0zM1292.12 75.35 a7.5 7.5 0 1 0 15 0 a7.5 7.5 0 1 0 -15 0zM1292.12 0.35 a7.5 7.5 0 1 0 15 0 a7.5 7.5 0 1 0 -15 0zM1422.03 300.35 a7.5 7.5 0 1 0 15 0 a7.5 7.5 0 1 0 -15 0zM1486.98 337.85 a7.5 7.5 0 1 0 15 0 a7.5 7.5 0 1 0 -15 0zM1486.98 412.85 a7.5 7.5 0 1 0 15 0 a7.5 7.5 0 1 0 -15 0zM1422.03 450.35 a7.5 7.5 0 1 0 15 0 a7.5 7.5 0 1 0 -15 0zM1357.08 412.85 a7.5 7.5 0 1 0 15 0 a7.5 7.5 0 1 0 -15 0zM1357.08 337.85 a7.5 7.5 0 1 0 15 0 a7.5 7.5 0 1 0 -15 0z" fill="rgba(196, 242, 168, 1)"></path><path d="M20.53 105.18L63.83 130.18L63.83 180.18L20.53 205.18L-22.77 180.18L-22.77 130.18zM20.53 405.18L63.83 430.18L63.83 480.18L20.53 505.18L-22.77 480.18L-22.77 430.18zM63.83 480.18L107.14 505.18L107.14 555.18L63.83 580.18L20.53 555.18L20.53 505.18zM107.14 105.18L150.44 130.18L150.44 180.18L107.14 205.18L63.83 180.18L63.83 130.18zM107.14 255.18L150.44 280.18L150.44 330.18L107.14 355.18L63.83 330.18L63.83 280.18zM237.04 30.18L280.35 55.18L280.35 105.18L237.04 130.18L193.74 105.18L193.74 55.18zM193.74 105.18L237.04 130.18L237.04 180.18L193.74 205.18L150.44 180.18L150.44 130.18zM237.04 180.18L280.35 205.18L280.35 255.18L237.04 280.18L193.74 255.18L193.74 205.18zM237.04 330.18L280.35 355.18L280.35 405.18L237.04 430.18L193.74 405.18L193.74 355.18zM280.35 105.18L323.65 130.18L323.65 180.18L280.35 205.18L237.04 180.18L237.04 130.18zM323.65 330.18L366.95 355.18L366.95 405.18L323.65 430.18L280.35 405.18L280.35 355.18zM280.35 405.18L323.65 430.18L323.65 480.18L280.35 505.18L237.04 480.18L237.04 430.18zM410.25 30.18L453.56 55.18L453.56 105.18L410.25 130.18L366.95 105.18L366.95 55.18zM366.95 105.18L410.25 130.18L410.25 180.18L366.95 205.18L323.65 180.18L323.65 130.18zM366.95 405.18L410.25 430.18L410.25 480.18L366.95 505.18L323.65 480.18L323.65 430.18zM410.25 480.18L453.56 505.18L453.56 555.18L410.25 580.18L366.95 555.18L366.95 505.18zM453.56 -44.82L496.86 -19.82L496.86 30.18L453.56 55.18L410.25 30.18L410.25 -19.82zM496.86 30.18L540.16 55.18L540.16 105.18L496.86 130.18L453.56 105.18L453.56 55.18zM453.56 105.18L496.86 130.18L496.86 180.18L453.56 205.18L410.25 180.18L410.25 130.18zM496.86 180.18L540.16 205.18L540.16 255.18L496.86 280.18L453.56 255.18L453.56 205.18zM453.56 255.18L496.86 280.18L496.86 330.18L453.56 355.18L410.25 330.18L410.25 280.18zM496.86 330.18L540.16 355.18L540.16 405.18L496.86 430.18L453.56 405.18L453.56 355.18zM583.46 180.18L626.76 205.18L626.76 255.18L583.46 280.18L540.16 255.18L540.16 205.18zM540.16 255.18L583.46 280.18L583.46 330.18L540.16 355.18L496.86 330.18L496.86 280.18zM670.07 30.18L713.37 55.18L713.37 105.18L670.07 130.18L626.76 105.18L626.76 55.18zM670.07 330.18L713.37 355.18L713.37 405.18L670.07 430.18L626.76 405.18L626.76 355.18zM670.07 480.18L713.37 505.18L713.37 555.18L670.07 580.18L626.76 555.18L626.76 505.18zM713.37 -44.82L756.67 -19.82L756.67 30.18L713.37 55.18L670.07 30.18L670.07 -19.82zM756.67 30.18L799.98 55.18L799.98 105.18L756.67 130.18L713.37 105.18L713.37 55.18zM843.28 30.18L886.58 55.18L886.58 105.18L843.28 130.18L799.98 105.18L799.98 55.18zM843.28 480.18L886.58 505.18L886.58 555.18L843.28 580.18L799.98 555.18L799.98 505.18zM886.58 -44.82L929.88 -19.82L929.88 30.18L886.58 55.18L843.28 30.18L843.28 -19.82zM929.88 330.18L973.19 355.18L973.19 405.18L929.88 430.18L886.58 405.18L886.58 355.18zM886.58 405.18L929.88 430.18L929.88 480.18L886.58 505.18L843.28 480.18L843.28 430.18zM929.88 480.18L973.19 505.18L973.19 555.18L929.88 580.18L886.58 555.18L886.58 505.18zM973.19 -44.82L1016.49 -19.82L1016.49 30.18L973.19 55.18L929.88 30.18L929.88 -19.82zM1016.49 30.18L1059.79 55.18L1059.79 105.18L1016.49 130.18L973.19 105.18L973.19 55.18zM973.19 105.18L1016.49 130.18L1016.49 180.18L973.19 205.18L929.88 180.18L929.88 130.18zM973.19 255.18L1016.49 280.18L1016.49 330.18L973.19 355.18L929.88 330.18L929.88 280.18zM1016.49 330.18L1059.79 355.18L1059.79 405.18L1016.49 430.18L973.19 405.18L973.19 355.18zM973.19 405.18L1016.49 430.18L1016.49 480.18L973.19 505.18L929.88 480.18L929.88 430.18zM1016.49 480.18L1059.79 505.18L1059.79 555.18L1016.49 580.18L973.19 555.18L973.19 505.18zM1059.79 -44.82L1103.09 -19.82L1103.09 30.18L1059.79 55.18L1016.49 30.18L1016.49 -19.82zM1103.09 30.18L1146.39 55.18L1146.39 105.18L1103.09 130.18L1059.79 105.18L1059.79 55.18zM1103.09 330.18L1146.39 355.18L1146.39 405.18L1103.09 430.18L1059.79 405.18L1059.79 355.18zM1103.09 480.18L1146.39 505.18L1146.39 555.18L1103.09 580.18L1059.79 555.18L1059.79 505.18zM1189.7 30.18L1233 55.18L1233 105.18L1189.7 130.18L1146.39 105.18L1146.39 55.18zM1146.39 105.18L1189.7 130.18L1189.7 180.18L1146.39 205.18L1103.09 180.18L1103.09 130.18zM1189.7 180.18L1233 205.18L1233 255.18L1189.7 280.18L1146.39 255.18L1146.39 205.18zM1189.7 330.18L1233 355.18L1233 405.18L1189.7 430.18L1146.39 405.18L1146.39 355.18zM1146.39 405.18L1189.7 430.18L1189.7 480.18L1146.39 505.18L1103.09 480.18L1103.09 430.18zM1276.3 180.18L1319.61 205.18L1319.61 255.18L1276.3 280.18L1233 255.18L1233 205.18zM1233 255.18L1276.3 280.18L1276.3 330.18L1233 355.18L1189.7 330.18L1189.7 280.18zM1276.3 330.18L1319.61 355.18L1319.61 405.18L1276.3 430.18L1233 405.18L1233 355.18zM1233 405.18L1276.3 430.18L1276.3 480.18L1233 505.18L1189.7 480.18L1189.7 430.18zM1276.3 480.18L1319.61 505.18L1319.61 555.18L1276.3 580.18L1233 555.18L1233 505.18zM1319.61 -44.82L1362.91 -19.82L1362.91 30.18L1319.61 55.18L1276.3 30.18L1276.3 -19.82zM1362.91 30.18L1406.21 55.18L1406.21 105.18L1362.91 130.18L1319.61 105.18L1319.61 55.18zM1319.61 105.18L1362.91 130.18L1362.91 180.18L1319.61 205.18L1276.3 180.18L1276.3 130.18zM1449.51 180.18L1492.82 205.18L1492.82 255.18L1449.51 280.18L1406.21 255.18L1406.21 205.18zM1406.21 255.18L1449.51 280.18L1449.51 330.18L1406.21 355.18L1362.91 330.18L1362.91 280.18zM1406.21 405.18L1449.51 430.18L1449.51 480.18L1406.21 505.18L1362.91 480.18L1362.91 430.18z" stroke="rgba(101, 241, 8, 0.93)" stroke-width="2"></path></g><defs><mask id="SvgjsMask1058"><rect width="1440" height="560" fill="#ffffff"></rect></mask></defs></svg>